<svg width="28" height="38" viewBox="0 0 28 38" fill="none" xmlns="http://www.w3.org/2000/svg">
<path d="M28 14C28 6.28025 21.7197 0 14 0C6.2804 0 0 6.28025 0 14C0 18.8753 2.50557 23.1757 6.29608 25.6835V36.5555C6.29608 36.8558 6.46889 37.1293 6.74007 37.2581C6.84638 37.3086 6.96042 37.3335 7.07388 37.3335C7.24954 37.3335 7.42367 37.274 7.5652 37.1589L13.9999 31.9194L20.4347 37.1585C20.6676 37.3482 20.989 37.3867 21.2601 37.2576C21.5313 37.1285 21.7041 36.8547 21.7037 36.5543L21.6924 25.6911C25.4893 23.1845 28 18.8802 28 14ZM14.4911 30.3129C14.2049 30.08 13.7947 30.08 13.5087 30.3129L7.85198 34.9189V26.5755C9.70895 27.4871 11.7955 27.9999 14 27.9999C16.2002 27.9999 18.2832 27.4891 20.1376 26.5808L20.1462 34.9173L14.4911 30.3129ZM14 26.4441C7.13827 26.4441 1.55583 20.8617 1.55583 14C1.55583 7.13827 7.13827 1.55583 14 1.55583C20.8617 1.55583 26.4442 7.13827 26.4442 14C26.4442 20.8617 20.8617 26.4441 14 26.4441Z" fill="#DBE6EC"/>
<path d="M14.7773 3.88879C14.7773 3.45916 14.4291 3.11084 13.9994 3.11084C7.9952 3.11084 3.11035 7.99561 3.11035 13.9999C3.11035 14.1641 3.11429 14.3321 3.12195 14.4989C3.14112 14.9159 3.48514 15.2411 3.89836 15.2411C3.91032 15.2411 3.92257 15.2409 3.93468 15.2403C4.36394 15.2205 4.69578 14.8566 4.67602 14.4275C4.66939 14.2842 4.66603 14.1403 4.66603 13.9998C4.66603 8.85348 8.85285 4.66659 13.9992 4.66659C14.4291 4.66667 14.7773 4.31842 14.7773 3.88879Z" fill="#DBE6EC"/>
<path d="M24.8763 13.5007C24.8564 13.0716 24.4913 12.7371 24.0633 12.7596C23.634 12.7795 23.3023 13.1435 23.3222 13.5726C23.3287 13.7128 23.3319 13.8566 23.3319 14C23.3319 19.1463 19.1451 23.3332 13.9987 23.3332C13.5691 23.3332 13.2207 23.6815 13.2207 24.1112C13.2207 24.5408 13.569 24.8891 13.9987 24.8891C20.0029 24.8891 24.8877 20.0043 24.8877 14.0001C24.8878 13.8327 24.884 13.6647 24.8763 13.5007Z" fill="#DBE6EC"/>
<path d="M13.9988 20.462C13.999 20.462 13.999 20.462 13.9992 20.462C14.245 20.462 14.4765 20.3457 14.6233 20.1486L16.2736 17.9311L19.0113 17.6148C19.2557 17.5866 19.4723 17.4444 19.5955 17.2313C19.7186 17.0183 19.7337 16.7596 19.6362 16.5337L18.5411 13.9958L19.6359 11.4667C19.7336 11.241 19.7187 10.9823 19.5959 10.7691C19.473 10.556 19.2565 10.4135 19.0122 10.3849L16.2667 10.0643L14.6238 7.85172C14.4771 7.65419 14.2456 7.53774 13.9996 7.5376C13.9995 7.5376 13.9993 7.5376 13.9992 7.5376C13.7534 7.5376 13.5219 7.65383 13.3752 7.85107L11.725 10.0685L8.98745 10.3848C8.74303 10.4129 8.52647 10.5551 8.40324 10.7683C8.28015 10.9812 8.26499 11.24 8.36255 11.4658L9.45769 14.0037L8.36284 16.5328C8.26513 16.7586 8.28001 17.0173 8.4028 17.2305C8.52574 17.4436 8.74223 17.5861 8.98657 17.6146L11.732 17.9353L13.3748 20.1478C13.5213 20.3454 13.7527 20.4618 13.9988 20.462ZM12.2461 16.4289L10.2063 16.1906L11.0188 14.3133C11.1041 14.1164 11.1042 13.893 11.0192 13.696L10.2055 11.8104L12.2376 11.5756C12.4507 11.551 12.6443 11.4394 12.7724 11.2672L13.9986 9.61967L15.218 11.262C15.3458 11.4342 15.5392 11.5459 15.7523 11.5709L17.7924 11.8091L16.9797 13.6865C16.8945 13.8834 16.8944 14.1068 16.9794 14.3038L17.7932 16.1895L15.7611 16.4243C15.548 16.4488 15.3543 16.5605 15.2263 16.7326L14 18.3803L12.7805 16.7379C12.6525 16.5654 12.4592 16.4537 12.2461 16.4289Z" fill="#DBE6EC"/>
<path d="M4.97788 16.3857C4.86049 15.9724 4.42977 15.7306 4.01655 15.848C3.60325 15.9654 3.36285 16.3937 3.48017 16.807L3.48622 16.8293C3.58357 17.1718 3.89616 17.3967 4.23573 17.3967C4.30573 17.3967 4.37683 17.3871 4.44763 17.367C4.86092 17.2497 5.10133 16.8214 4.98408 16.4081L4.97788 16.3857Z" fill="#DBE6EC"/>
<path d="M23.7714 12.1797C23.8345 12.1797 23.8988 12.1719 23.9628 12.1557C24.3793 12.0503 24.6316 11.6272 24.5261 11.2107C24.5231 11.1989 24.5199 11.1867 24.5167 11.1748C24.4017 10.7608 23.9729 10.5191 23.559 10.6341C23.145 10.7491 22.9029 11.1785 23.0179 11.5924C23.107 11.945 23.4236 12.1797 23.7714 12.1797Z" fill="#DBE6EC"/>
</svg>
