<svg width="28" height="38" viewBox="0 0 28 38" fill="none" xmlns="http://www.w3.org/2000/svg">
<path d="M28 14C28 6.28025 21.7197 0 14 0C6.2804 0 0 6.28025 0 14C0 18.8753 2.50557 23.1757 6.29608 25.6835V36.5555C6.29608 36.8558 6.46889 37.1293 6.74007 37.2581C6.84638 37.3086 6.96042 37.3335 7.07388 37.3335C7.24954 37.3335 7.42367 37.274 7.5652 37.1589L13.9999 31.9194L20.4347 37.1585C20.6676 37.3482 20.989 37.3867 21.2601 37.2576C21.5313 37.1285 21.7041 36.8547 21.7037 36.5543L21.6924 25.6911C25.4893 23.1845 28 18.8802 28 14ZM14.4911 30.3129C14.2049 30.08 13.7947 30.08 13.5087 30.3129L7.85198 34.9189V26.5755C9.70895 27.4871 11.7955 27.9999 14 27.9999C16.2002 27.9999 18.2832 27.4891 20.1376 26.5808L20.1462 34.9173L14.4911 30.3129ZM14 26.4441C7.13827 26.4441 1.55583 20.8617 1.55583 14C1.55583 7.13827 7.13827 1.55583 14 1.55583C20.8617 1.55583 26.4442 7.13827 26.4442 14C26.4442 20.8617 20.8617 26.4441 14 26.4441Z" fill="#20BF55"/>
<path d="M14.7773 3.88879C14.7773 3.45916 14.4291 3.11084 13.9994 3.11084C7.9952 3.11084 3.11035 7.99561 3.11035 13.9999C3.11035 14.1641 3.11429 14.3321 3.12195 14.4989C3.14112 14.9159 3.48514 15.2411 3.89836 15.2411C3.91032 15.2411 3.92257 15.2409 3.93468 15.2403C4.36394 15.2205 4.69578 14.8566 4.67602 14.4275C4.66939 14.2842 4.66603 14.1403 4.66603 13.9998C4.66603 8.85348 8.85285 4.66659 13.9992 4.66659C14.4291 4.66667 14.7773 4.31842 14.7773 3.88879Z" fill="#20BF55"/>
<path d="M24.8763 13.5007C24.8564 13.0716 24.4913 12.7371 24.0633 12.7596C23.634 12.7795 23.3023 13.1435 23.3222 13.5726C23.3287 13.7128 23.3319 13.8566 23.3319 14C23.3319 19.1463 19.1451 23.3332 13.9987 23.3332C13.5691 23.3332 13.2207 23.6815 13.2207 24.1112C13.2207 24.5408 13.569 24.8891 13.9987 24.8891C20.0029 24.8891 24.8877 20.0043 24.8877 14.0001C24.8878 13.8327 24.884 13.6647 24.8763 13.5007Z" fill="#20BF55"/>
</svg>
