<svg width="44" height="53" viewBox="0 0 44 53" fill="none" xmlns="http://www.w3.org/2000/svg">
<path d="M22 52.6667C24.9333 52.6667 27.3333 50.2668 27.3333 47.3334H16.6667C16.6667 50.2668 19.0667 52.6667 22 52.6667ZM38 36.6667V23.3334C38 15.1467 33.6533 8.29341 26 6.48008V4.66675C26 2.45341 24.2133 0.666748 22 0.666748C19.7867 0.666748 18 2.45341 18 4.66675V6.48008C10.3733 8.29341 5.99999 15.1201 5.99999 23.3334V36.6667L0.666656 42.0001V44.6667H43.3333V42.0001L38 36.6667ZM32.6667 39.3334H11.3333V23.3334C11.3333 16.7201 15.36 11.3334 22 11.3334C28.64 11.3334 32.6667 16.7201 32.6667 23.3334V39.3334Z" fill="#67747C"/>
</svg>
