<svg width="120" height="127" viewBox="0 0 120 127" fill="none" xmlns="http://www.w3.org/2000/svg">
<path d="M119.65 1.70418C119.11 0.652928 118.04 0 116.858 0H84.8619C83.8509 0 82.8962 0.490931 82.308 1.31277L60.0002 32.4923L37.6925 1.31302C37.1043 0.490931 36.1496 0 35.1386 0H3.14212C1.96023 0 0.88996 0.653175 0.34964 1.70418C-0.190928 2.75544 -0.0995573 4.00573 0.588191 4.96734L38.5909 58.0837C37.9274 58.611 37.1077 58.9382 36.2298 58.9875C31.9251 59.2298 28.5927 62.9308 28.8017 67.2373C28.8807 68.8684 27.9937 70.4049 26.5416 71.1517C22.7075 73.124 21.1685 77.8602 23.1113 81.7094C23.8469 83.1671 23.6612 84.9316 22.6386 86.2048C19.938 89.566 20.4586 94.5188 23.799 97.2451C25.0641 98.2776 25.6123 99.965 25.1955 101.544C24.0958 105.713 26.5858 110.026 30.7461 111.158C32.3217 111.586 33.509 112.905 33.7707 114.517C34.4617 118.772 38.4904 121.7 42.7515 121.042C44.3653 120.793 45.9865 121.514 46.8809 122.88C49.2432 126.487 54.1143 127.523 57.7394 125.188C59.1122 124.304 60.8868 124.304 62.2596 125.188C63.5716 126.033 65.0466 126.436 66.5068 126.436C69.0817 126.436 71.6107 125.182 73.1181 122.88C74.0125 121.514 75.6335 120.793 77.2475 121.042C81.5084 121.7 85.5373 118.772 86.2283 114.517C86.49 112.905 87.6771 111.586 89.2529 111.158C93.4134 110.026 95.9032 105.713 94.8033 101.544C94.3869 99.965 94.9349 98.2776 96.2 97.2451C99.5404 94.5188 100.061 89.566 97.3604 86.2048C96.3378 84.9318 96.1523 83.1671 96.8877 81.7096C98.8305 77.8605 97.2915 73.1243 93.4574 71.1517C92.0053 70.4047 91.1183 68.8681 91.1973 67.2371C91.4062 62.9306 88.0742 59.2298 83.7694 58.9875C82.8915 58.9382 82.0716 58.611 81.4081 58.0837L119.412 4.9671C120.1 4.00573 120.191 2.75544 119.65 1.70418ZM104.818 3.70569L72.1103 49.4186L68.3503 44.1633L97.2984 3.70569H104.818ZM85.1525 3.70569H92.7417L66.0722 40.9792L62.2786 35.6767L85.1525 3.70569ZM34.8479 3.70569L69.3926 51.9886C68.0211 52.2908 66.5651 51.8826 65.5509 50.8761C64.0272 49.3643 62.0282 48.6056 60.0269 48.599L27.9052 3.70569H34.8479ZM23.3488 3.70569L56.175 49.5835C55.5567 49.9258 54.9744 50.355 54.4494 50.8758C53.3645 51.9523 51.7739 52.3444 50.3229 51.9147L15.8288 3.70569H23.3488ZM4.24202 3.70569H11.2721L45.4758 51.509C43.5822 51.9471 41.8741 53.0764 40.7411 54.7203L4.24202 3.70569ZM83.5617 62.6876C85.8423 62.816 87.6075 64.7765 87.4968 67.0578C87.3474 70.1367 89.022 73.0371 91.7631 74.4472C93.7942 75.492 94.6094 78.001 93.5804 80.0403C92.1915 82.792 92.5415 86.1228 94.4723 88.5259C95.9029 90.3066 95.6273 92.9302 93.8577 94.3746C91.4695 96.3237 90.4345 99.5089 91.2208 102.49C91.8036 104.698 90.4844 106.982 88.2806 107.582C85.3064 108.392 83.0653 110.881 82.571 113.923C82.2052 116.178 80.0691 117.728 77.8135 117.38C74.7664 116.91 71.7075 118.272 70.0184 120.851C68.7673 122.761 66.1872 123.31 64.2662 122.073C62.9703 121.239 61.4854 120.822 60 120.822C58.5148 120.822 57.0295 121.239 55.7337 122.073C53.8132 123.31 51.2326 122.761 49.9816 120.85C48.2925 118.272 45.2323 116.909 42.1865 117.38C39.9291 117.728 37.795 116.178 37.429 113.923C36.9346 110.88 34.6936 108.392 31.7193 107.582C29.5156 106.982 28.1964 104.698 28.7789 102.49C29.5655 99.5091 28.5305 96.3237 26.1423 94.3746C24.3727 92.9302 24.0971 90.3064 25.5276 88.5259C27.4583 86.1228 27.8084 82.792 26.4196 80.04C25.3906 78.001 26.2058 75.492 28.2369 74.4472C30.978 73.0371 32.6526 70.1367 32.5032 67.0578C32.3925 64.7762 34.1577 62.816 36.4383 62.6876C38.8638 62.551 41.0572 61.296 42.4255 59.3651C42.4512 59.3323 42.4749 59.2985 42.4981 59.2641C42.8344 58.7729 43.1202 58.2413 43.3412 57.6721C44.168 55.5429 46.5779 54.4696 48.7135 55.2801C51.5951 56.3734 54.8711 55.6772 57.0596 53.5061C58.6808 51.8972 61.3192 51.8972 62.9404 53.5061C65.1288 55.6772 68.4051 56.3739 71.2867 55.2801C73.4213 54.4699 75.832 55.5426 76.6588 57.6721C76.7151 57.8168 76.78 57.9568 76.8423 58.0975C77.5923 59.7941 79.2527 61.097 79.2527 61.097C80.4783 62.0245 81.9697 62.5977 83.5617 62.6876ZM79.2587 54.7203C78.2348 53.2349 76.741 52.1711 75.0655 51.6564L109.375 3.70569H115.758L79.2587 54.7203Z" fill="#20BF55"/>
<path d="M89.5207 82.9246C88.4516 75.9442 84.908 69.5411 79.5423 64.8945C74.1206 60.1996 67.1804 57.614 59.9999 57.614C52.8179 57.6138 45.8762 60.2005 40.4542 64.8972C35.0878 69.5458 31.5449 75.9513 30.4781 82.9338C30.3235 83.9453 31.0181 84.8906 32.0299 85.0452C32.1247 85.0597 32.219 85.0666 32.3121 85.0666C33.2118 85.0666 34.0013 84.4103 34.1413 83.4933C35.0752 77.3802 38.1789 71.7708 42.8805 67.6981C47.629 63.5847 53.7089 61.3195 59.9999 61.3195C66.2896 61.3195 72.3682 63.5837 77.1163 67.6956C81.8177 71.7666 84.922 77.3742 85.8575 83.4854C86.0123 84.4967 86.9589 85.1923 87.9694 85.0365C88.9809 84.8817 89.6755 83.9361 89.5207 82.9246Z" fill="#20BF55"/>
<path d="M87.9704 89.9145C86.9608 89.7604 86.0135 90.4545 85.859 91.4663C84.925 97.5795 81.8214 103.189 77.1197 107.262C72.3712 111.375 66.2914 113.64 60.0004 113.64C53.723 113.64 47.653 111.384 42.9091 107.286C38.213 103.23 35.1034 97.6387 34.1534 91.5436C33.9961 90.5326 33.05 89.8401 32.0373 89.9982C31.0263 90.1557 30.3343 91.1033 30.4921 92.1143C31.5772 99.0767 35.1269 105.461 40.4868 110.091C45.9036 114.769 52.8337 117.346 60.0001 117.346C67.1821 117.346 74.1238 114.76 79.5457 110.063C84.9122 105.414 88.4551 99.0086 89.5219 92.0261C89.6768 91.0141 88.9818 90.0688 87.9704 89.9145Z" fill="#20BF55"/>
</svg>
