<svg width="44" height="37" viewBox="0 0 44 37" fill="none" xmlns="http://www.w3.org/2000/svg">
<path d="M42.9378 14.2959C42.6183 14.1019 42.2172 14.1396 41.94 14.3896C41.2063 15.0505 40.4618 15.6589 39.692 16.2285C39.8613 15.6731 40.0074 15.1272 40.1312 14.5931C41.429 13.8516 42.468 12.6372 43.1473 11.0625C43.7724 9.61343 44.0703 7.89813 43.986 6.23249C43.967 5.85832 43.7094 5.54818 43.345 5.46061C42.9796 5.37321 42.6082 5.53262 42.4207 5.85858C41.9227 6.72491 41.3958 7.54295 40.8307 8.33013C40.8269 7.64874 40.7973 6.98788 40.7419 6.35229C40.7417 6.33957 40.7419 6.32694 40.7409 6.31413C40.5934 4.3503 40.2314 2.38165 39.665 0.46302C39.564 0.121076 39.2048 -0.0741729 38.8631 0.0266313C38.5212 0.127607 38.3257 0.486566 38.4267 0.82851C38.7872 2.04985 39.0589 3.29215 39.243 4.53962C38.5371 3.85754 37.8091 3.22057 37.0436 2.61583C36.7587 2.39076 36.3634 2.37418 36.0601 2.57458C35.7571 2.77481 35.6176 3.14443 35.7127 3.49437C36.4869 6.33983 37.781 8.76643 39.4617 10.5375C39.42 11.0798 39.3564 11.6384 39.2707 12.2107C38.8014 11.3809 38.2996 10.5882 37.7543 9.81693C37.5468 9.52371 37.1757 9.39524 36.8311 9.49664C36.487 9.59805 36.2455 9.90665 36.2303 10.2647C36.1458 12.2706 36.3449 15.1978 37.7381 17.9123C37.5428 18.4066 37.3234 18.9097 37.0801 19.4193C36.8708 18.4945 36.6198 17.5965 36.3208 16.7069C36.2068 16.3679 35.8895 16.1381 35.5312 16.1352C35.529 16.1352 35.5267 16.1352 35.5245 16.1352C35.1699 16.1352 34.8528 16.3586 34.7344 16.6929C33.8098 19.3033 33.5416 22.0283 33.9669 24.4072C33.6342 24.8266 33.2755 25.2472 32.8919 25.6667C32.9645 24.7186 32.9879 23.7834 32.9618 22.8422C32.9518 22.4842 32.7152 22.1718 32.3732 22.0645C32.0321 21.9574 31.6601 22.0786 31.448 22.3662C29.7938 24.6089 28.7207 27.1588 28.4039 29.5792C26.6838 30.874 25.7757 31.2177 24.8169 31.5802C24.0268 31.8789 23.2203 32.1846 22 32.998C20.7797 32.1845 19.9732 31.8789 19.1831 31.5802C18.2243 31.2177 17.3161 30.8739 15.5961 29.5792C15.2793 27.1587 14.2062 24.6089 12.5519 22.3661C12.3397 22.0787 11.9679 21.9576 11.6268 22.0645C11.2847 22.1718 11.0482 22.4842 11.0382 22.8423C11.0121 23.7835 11.0355 24.7186 11.1081 25.6667C10.7245 25.2472 10.3658 24.8267 10.0331 24.4072C10.4584 22.0283 10.1902 19.3033 9.26558 16.6928C9.14716 16.3585 8.83022 16.1352 8.47548 16.1352C8.47333 16.1352 8.47101 16.1352 8.46877 16.1352C8.11059 16.138 7.79322 16.3678 7.6791 16.7071C7.38021 17.5965 7.1291 18.4945 6.91993 19.4193C6.67673 18.9097 6.45716 18.4066 6.26191 17.9123C7.65512 15.1978 7.85424 12.2706 7.76968 10.2646C7.75446 9.90665 7.51298 9.59805 7.16889 9.49664C6.82437 9.39532 6.45303 9.5238 6.24575 9.81693C5.7004 10.5881 5.19861 11.3808 4.72931 12.2107C4.64363 11.6384 4.58003 11.0798 4.53835 10.5375C6.21903 8.76643 7.51315 6.33991 8.28727 3.49437C8.38241 3.14443 8.24293 2.77481 7.93992 2.57458C7.63664 2.37426 7.24142 2.39076 6.95645 2.61583C6.19092 3.22057 5.46295 3.85754 4.75698 4.53962C4.94105 3.29207 5.21279 2.04985 5.57329 0.82851C5.67427 0.486566 5.47885 0.127607 5.13691 0.0266313C4.79531 -0.0744308 4.436 0.12099 4.33503 0.46302C3.76862 2.38174 3.40665 4.3503 3.25909 6.31413C3.25815 6.32694 3.25841 6.33957 3.25815 6.35229C3.20263 6.98788 3.17307 7.64874 3.16929 8.33013C2.60417 7.54295 2.07729 6.72483 1.5792 5.85832C1.39177 5.53262 1.02052 5.37329 0.655028 5.46061C0.290568 5.54818 0.0330147 5.85832 0.0140226 6.23258C-0.0702817 7.89813 0.227576 9.61343 0.852683 11.0625C1.53202 12.6373 2.571 13.8516 3.86882 14.5931C3.99248 15.1272 4.13875 15.6731 4.30796 16.2285C3.5383 15.6589 2.79374 15.0506 2.06019 14.3897C1.78269 14.1397 1.38154 14.1018 1.0622 14.296C0.743457 14.4895 0.592379 14.8619 0.686137 15.2226C1.43241 18.0916 3.59734 21.2274 6.78767 21.9402C7.06026 22.4128 7.35726 22.8899 7.67858 23.3691C6.77891 23.0502 5.89109 22.6879 4.99777 22.2733C4.65944 22.1164 4.26542 22.1978 4.01715 22.4764C3.76956 22.7543 3.73381 23.1543 3.92837 23.4716C5.4028 25.8761 8.18312 28.1409 11.2673 28.1409C11.4186 28.1409 11.5708 28.1347 11.7236 28.1235C12.5767 28.9203 13.5449 29.702 14.6083 30.4499C16.6118 31.988 17.6869 32.3945 18.7264 32.7875C19.3734 33.0321 20.0033 33.2706 20.8751 33.807C20.2076 34.3185 19.4344 34.9605 18.5172 35.7812C18.2515 36.0189 18.2288 36.4269 18.4666 36.6926C18.5941 36.8352 18.7707 36.9077 18.9479 36.9077C19.1011 36.9077 19.2549 36.8535 19.3781 36.7433C20.4417 35.7915 21.2919 35.0959 21.9998 34.5728C22.7078 35.0959 23.558 35.7915 24.6216 36.7433C24.7447 36.8535 24.8986 36.9077 25.0518 36.9077C25.2291 36.9077 25.4056 36.8351 25.5331 36.6926C25.7708 36.4269 25.7481 36.0189 25.4824 35.7812C24.5652 34.9604 23.792 34.3185 23.1246 33.807C23.9964 33.2707 24.6263 33.0322 25.2733 32.7875C26.3128 32.3945 27.3879 31.9879 29.3914 30.4499C30.4548 29.702 31.4229 28.9202 32.276 28.1235C32.4287 28.1347 32.5808 28.1409 32.7323 28.1409C35.8162 28.1409 38.597 25.8759 40.0713 23.4716C40.2659 23.1543 40.2301 22.7543 39.9825 22.4764C39.7343 22.1979 39.3403 22.1162 39.0021 22.2733C38.1087 22.6878 37.2208 23.0502 36.3211 23.3691C36.6424 22.8899 36.9394 22.4128 37.212 21.9401C40.4023 21.2273 42.5672 18.0916 43.3135 15.2225C43.4076 14.8618 43.2565 14.4894 42.9378 14.2959ZM40.5237 12.5558C40.5415 12.4418 40.5591 12.3278 40.5752 12.2147C40.5851 12.1453 40.594 12.0766 40.6032 12.0075C40.6175 11.9017 40.6315 11.796 40.6442 11.691C40.6528 11.6203 40.6606 11.5501 40.6686 11.4798C40.6802 11.3773 40.6914 11.275 40.7015 11.1734C40.7085 11.1037 40.715 11.0342 40.7214 10.9649C40.7307 10.8632 40.7393 10.7621 40.7471 10.6614C40.75 10.6244 40.7539 10.5866 40.7565 10.5496C41.4318 9.72343 42.054 8.8724 42.637 7.97745C42.4267 9.73366 41.7463 11.5203 40.4995 12.7157C40.5082 12.662 40.5153 12.6093 40.5237 12.5558ZM1.36306 7.97745C1.94606 8.87248 2.56833 9.72343 3.24354 10.5496C3.2462 10.5866 3.25016 10.6243 3.25299 10.6614C3.26081 10.7621 3.26941 10.8632 3.27869 10.9649C3.28505 11.0342 3.29158 11.1037 3.29854 11.1734C3.30877 11.275 3.31985 11.3773 3.33145 11.4798C3.33936 11.5501 3.34727 11.6203 3.35586 11.691C3.36866 11.796 3.38267 11.9017 3.39685 12.0075C3.40613 12.0766 3.41498 12.1453 3.42487 12.2147C3.44102 12.3278 3.45864 12.4418 3.47643 12.5558C3.48476 12.6093 3.4919 12.662 3.50058 12.7158C2.2538 11.5204 1.57344 9.73374 1.36306 7.97745ZM6.47752 11.7959C6.40654 13.3496 6.11805 14.8291 5.6319 16.1376C5.61687 16.0901 5.60226 16.0427 5.58747 15.9954C5.55894 15.9037 5.53058 15.8122 5.50334 15.7211C5.48332 15.654 5.46415 15.5873 5.44482 15.5207C5.41938 15.4328 5.39412 15.3451 5.36988 15.2578C5.3508 15.189 5.33241 15.1206 5.31411 15.0523C5.29151 14.9681 5.26925 14.8841 5.24785 14.8005C5.22998 14.7307 5.2127 14.6613 5.19569 14.5919C5.17566 14.5105 5.15607 14.4293 5.13716 14.3485C5.12883 14.3131 5.12101 14.2778 5.11293 14.2425C5.53754 13.3849 5.98906 12.5752 6.47752 11.7959ZM4.46153 8.18662C4.46239 8.11383 4.46393 8.04164 4.46539 7.96937C4.46728 7.87587 4.46935 7.78254 4.47227 7.68999C4.47459 7.61711 4.47751 7.54484 4.48052 7.47257C4.48421 7.38242 4.48825 7.29261 4.49298 7.20341C4.49685 7.13028 4.50114 7.05758 4.5057 6.98513C4.51111 6.89868 4.51696 6.81265 4.5234 6.72706C4.52632 6.6883 4.5295 6.6498 4.5326 6.61122C5.19861 5.89476 5.8776 5.2315 6.58512 4.60699C6.03632 6.13504 5.31892 7.49457 4.46049 8.63461C4.46015 8.58098 4.46032 8.52779 4.46032 8.47442C4.46041 8.37817 4.46041 8.28201 4.46153 8.18662ZM2.48807 16.4531C3.30627 17.1153 4.14622 17.7264 5.0263 18.3005C5.03997 18.3355 5.05501 18.371 5.06893 18.4062C5.10425 18.4953 5.14026 18.5847 5.17704 18.6743C5.20419 18.7406 5.23161 18.8068 5.25962 18.8732C5.29752 18.9633 5.33654 19.0537 5.3759 19.1442C5.40451 19.21 5.43304 19.2758 5.46252 19.3419C5.50429 19.4357 5.54743 19.5299 5.59074 19.6241C5.6197 19.6871 5.64815 19.7498 5.67779 19.813C5.72592 19.9155 5.77568 20.0184 5.82552 20.1213C5.84795 20.1676 5.86918 20.2137 5.89204 20.2601C4.36794 19.5004 3.20281 18.0299 2.48807 16.4531ZM8.4741 18.5221C8.85343 20.0087 9.00408 21.4988 8.91711 22.8944C8.88634 22.8496 8.85601 22.8048 8.82567 22.76C8.77617 22.687 8.72667 22.6139 8.67829 22.541C8.63747 22.4794 8.59759 22.418 8.55763 22.3565C8.50994 22.2832 8.46241 22.2099 8.41601 22.1369C8.37682 22.0752 8.33849 22.0136 8.30017 21.9521C8.25496 21.8796 8.21019 21.8071 8.16619 21.7348C8.12881 21.6732 8.09211 21.6119 8.05559 21.5505C8.01253 21.4781 7.96991 21.4057 7.92806 21.3334C7.91035 21.3029 7.89308 21.2723 7.87555 21.2418C8.03393 20.3032 8.23184 19.4032 8.4741 18.5221ZM6.00521 24.1168C6.97966 24.5095 7.95942 24.8481 8.96583 25.1405C8.98981 25.171 9.01525 25.2015 9.03948 25.2319C9.09904 25.3068 9.15945 25.3818 9.22064 25.4567C9.2661 25.5124 9.31164 25.568 9.35796 25.6237C9.42139 25.7 9.48593 25.7763 9.55089 25.8526C9.59704 25.9068 9.64302 25.9609 9.68994 26.0151C9.75869 26.0945 9.8289 26.1738 9.89937 26.2531C9.94457 26.304 9.98917 26.3548 10.0351 26.4056C10.1127 26.4917 10.192 26.5775 10.2715 26.6634C10.3056 26.7002 10.3384 26.7371 10.3729 26.774C8.69058 26.486 7.14698 25.4166 6.00521 24.1168ZM13.9418 28.3351C13.8705 28.2779 13.7991 28.2205 13.729 28.163C13.6716 28.1159 13.6151 28.0687 13.5586 28.0214C13.4895 27.9638 13.4206 27.906 13.3529 27.8482C13.2975 27.8008 13.2429 27.7534 13.1884 27.7059C13.1215 27.6477 13.055 27.5894 12.9894 27.531C12.9362 27.4835 12.8836 27.4361 12.8313 27.3886C12.7665 27.3297 12.7022 27.2708 12.6388 27.2118C12.6125 27.1874 12.5866 27.1629 12.5606 27.1384C12.4333 26.1899 12.3568 25.2665 12.3298 24.3479C13.1352 25.6695 13.7276 27.0631 14.0689 28.4367C14.0262 28.4028 13.9841 28.3689 13.9418 28.3351ZM31.4394 27.1384C31.4134 27.1629 31.3875 27.1874 31.3612 27.2118C31.2978 27.2708 31.2335 27.3297 31.1687 27.3886C31.1164 27.4361 31.0638 27.4835 31.0106 27.531C30.945 27.5894 30.8785 27.6477 30.8116 27.7059C30.757 27.7534 30.7024 27.8008 30.6471 27.8482C30.5793 27.9061 30.5104 27.9638 30.4414 28.0214C30.3849 28.0687 30.3284 28.1159 30.271 28.163C30.2009 28.2205 30.1295 28.2779 30.0582 28.3351C30.016 28.3689 29.9738 28.4028 29.9312 28.4366C30.2726 27.063 30.8649 25.6694 31.6703 24.3479C31.6433 25.2664 31.5667 26.1899 31.4394 27.1384ZM35.5259 18.5221C35.7682 19.4031 35.9661 20.3032 36.1245 21.2418C36.1069 21.2723 36.0896 21.3029 36.0719 21.3334C36.0301 21.4056 35.9875 21.4781 35.9444 21.5505C35.908 21.6119 35.8712 21.6732 35.8338 21.7348C35.7899 21.807 35.745 21.8796 35.6998 21.9521C35.6615 22.0136 35.6232 22.0752 35.584 22.1369C35.5375 22.21 35.49 22.2833 35.4424 22.3565C35.4024 22.418 35.3625 22.4795 35.3217 22.541C35.2733 22.6139 35.2239 22.687 35.1743 22.76C35.144 22.8048 35.1137 22.8496 35.0829 22.8944C34.9959 21.4989 35.1466 20.0087 35.5259 18.5221ZM37.9949 24.1168C36.8529 25.4167 35.3096 26.4861 33.6271 26.774C33.6655 26.733 33.7021 26.6919 33.74 26.6509C33.8148 26.57 33.8896 26.4892 33.9627 26.4082C34.0113 26.3544 34.0585 26.3006 34.1063 26.2467C34.1744 26.1701 34.2422 26.0935 34.3086 26.0168C34.3567 25.9613 34.4039 25.9058 34.4512 25.8503C34.5152 25.7751 34.5787 25.7 34.6413 25.6248C34.6881 25.5685 34.7342 25.5122 34.7801 25.4559C34.841 25.3813 34.9011 25.3068 34.9604 25.2322C34.9848 25.2016 35.0103 25.1711 35.0343 25.1405C36.0406 24.8481 37.0203 24.5094 37.9949 24.1168ZM37.4149 4.60699C38.1223 5.2315 38.8014 5.89476 39.4674 6.61122C39.4705 6.6498 39.4738 6.6883 39.4766 6.72706C39.483 6.81265 39.4889 6.89876 39.4943 6.98522C39.4989 7.05749 39.5032 7.13002 39.507 7.20298C39.5118 7.29244 39.5158 7.3825 39.5195 7.47291C39.5224 7.54501 39.5253 7.6172 39.5276 7.6899C39.5306 7.78245 39.5326 7.87587 39.5345 7.96937C39.536 8.04164 39.5376 8.11383 39.5385 8.18662C39.5396 8.28201 39.5396 8.37817 39.5397 8.47442C39.5397 8.52779 39.5399 8.58098 39.5395 8.63461C38.6811 7.49474 37.9635 6.13487 37.4149 4.60699ZM37.5225 11.7959C38.011 12.5752 38.4625 13.385 38.887 14.2423C38.8789 14.2777 38.8711 14.3129 38.8628 14.3483C38.8438 14.4292 38.8243 14.5104 38.8042 14.5918C38.7872 14.6611 38.7699 14.7306 38.7521 14.8003C38.7307 14.884 38.7084 14.968 38.6858 15.0521C38.6675 15.1205 38.6491 15.1889 38.63 15.2576C38.6058 15.3448 38.5805 15.4326 38.5551 15.5205C38.5358 15.5873 38.5166 15.6539 38.4966 15.7209C38.4693 15.812 38.441 15.9036 38.4124 15.9952C38.3978 16.0426 38.3831 16.0899 38.368 16.1374C37.882 14.8291 37.5934 13.3495 37.5225 11.7959ZM38.108 20.2602C38.1307 20.2138 38.1521 20.1677 38.1745 20.1214C38.2243 20.0184 38.2742 19.9156 38.3222 19.813C38.3519 19.75 38.3803 19.6871 38.4093 19.6242C38.4526 19.5299 38.4957 19.4357 38.5375 19.3419C38.5669 19.2759 38.5954 19.2101 38.6241 19.1443C38.6635 19.0538 38.7025 18.9634 38.7404 18.8733C38.7684 18.8068 38.7958 18.7406 38.823 18.6744C38.8597 18.5847 38.8958 18.4954 38.9312 18.4063C38.9451 18.3711 38.9601 18.3356 38.9738 18.3006C39.8539 17.7265 40.6938 17.1155 41.512 16.4532C40.7972 18.0299 39.6321 19.5004 38.108 20.2602Z" fill="#045DE9"/>
<path d="M33.442 12.9368C33.4466 12.7248 33.3911 12.5112 33.2727 12.324L29.9521 7.07787C29.8461 6.91021 29.6998 6.77898 29.5307 6.69081C29.5253 6.68806 29.5197 6.68566 29.5142 6.68299C29.3638 6.60771 29.1963 6.56543 29.0214 6.56543H14.979C14.8036 6.56543 14.6358 6.60788 14.4852 6.68342C14.48 6.68583 14.4749 6.68806 14.4699 6.69064C14.3007 6.77881 14.1544 6.91004 14.0483 7.0777L13.1549 8.48905C12.9642 8.79026 13.0538 9.18909 13.355 9.3797C13.6563 9.57039 14.0552 9.48085 14.2457 9.17955L14.7297 8.41497L17.2016 12.2954L12.2734 12.2955L12.6218 11.7452C12.8125 11.444 12.7229 11.0452 12.4217 10.8546C12.1205 10.6639 11.7216 10.7534 11.531 11.0547L10.7277 12.3238C10.6092 12.511 10.5537 12.7246 10.5584 12.9366C10.5584 12.9381 10.5581 12.9396 10.5581 12.941C10.5581 12.9435 10.5585 12.9459 10.5585 12.9484C10.559 12.9618 10.5597 12.975 10.5605 12.9883C10.5612 12.9983 10.562 13.0083 10.5632 13.0182C10.5829 13.2233 10.659 13.4235 10.7919 13.5928L21.1336 26.7757C21.3031 26.9917 21.5417 27.1318 21.8062 27.1786C21.814 27.1801 21.8218 27.1815 21.8296 27.1827C21.8857 27.1914 21.9424 27.1974 22.0002 27.1974C22.0576 27.1974 22.114 27.1915 22.1696 27.1829C22.178 27.1816 22.1863 27.1802 22.1946 27.1786C22.4589 27.1316 22.6974 26.9916 22.8668 26.7757L33.2086 13.5929C33.3414 13.4236 33.4176 13.2233 33.4372 13.0182C33.4384 13.0083 33.4391 12.9984 33.4399 12.9885C33.4409 12.9751 33.4415 12.9619 33.4419 12.9486C33.4419 12.9461 33.4422 12.9437 33.4422 12.9412C33.4422 12.9397 33.4421 12.9383 33.442 12.9368ZM28.0959 7.85629L25.6222 11.7394L23.1486 7.85629H28.0959ZM24.4457 12.2952H19.4986L21.9722 8.41213L24.4457 12.2952ZM15.9045 7.85629H20.7956L18.3501 11.6953L15.9045 7.85629ZM12.4278 13.5865L17.8794 13.5862L20.5928 23.9946L12.4278 13.5865ZM23.3986 24.0062L24.7208 18.8948C24.8101 18.5497 24.6027 18.1975 24.2575 18.1082C23.912 18.0186 23.5602 18.2264 23.471 18.5715L21.9979 24.2662L19.2136 13.5862H24.7606L24.2305 15.6359C24.1412 15.981 24.3485 16.3332 24.6937 16.4224C24.748 16.4364 24.8024 16.4432 24.8558 16.4432C25.143 16.4432 25.4051 16.2501 25.4803 15.9591L26.0941 13.5861L31.5728 13.5864L23.3986 24.0062ZM26.7987 12.2953L29.2707 8.41488L31.7269 12.2955L26.7987 12.2953Z" fill="#045DE9"/>
</svg>
