<svg width="100" height="100" viewBox="0 0 100 100" fill="none" xmlns="http://www.w3.org/2000/svg">
<path d="M39.9833 35.9891H23.9858V31.995H39.9833V35.9891ZM59.9958 35.9891H75.9933V31.995H59.9958V35.9891ZM28.0008 71.9992V75.9933C28.0008 75.9933 35.9891 68.005 50 68.005C64.0109 68.005 71.9992 75.9933 71.9992 75.9933V71.9992C71.9992 71.9992 64.0109 64.0109 50 64.0109C35.9891 64.0109 28.0008 71.9992 28.0008 71.9992ZM100 50C100 77.6035 77.6035 100 50 100C22.3965 100 0 77.6035 0 50C0 22.3965 22.3965 0 50 0C77.5826 0 100 22.3965 100 50ZM95.9849 50C95.9849 24.404 75.596 4.01506 50 4.01506C24.404 4.01506 4.01506 24.404 4.01506 50C4.01506 75.596 24.404 95.9849 50 95.9849C75.596 95.9849 95.9849 75.596 95.9849 50Z" fill="#FC575E"/>
</svg>
