<svg width="14" height="19" viewBox="0 0 14 19" fill="none" xmlns="http://www.w3.org/2000/svg">
<path d="M11.9999 6.66683H11.1666V5.00016C11.1666 2.70016 9.29992 0.833496 6.99992 0.833496C4.69992 0.833496 2.83325 2.70016 2.83325 5.00016V6.66683H1.99992C1.08325 6.66683 0.333252 7.41683 0.333252 8.3335V16.6668C0.333252 17.5835 1.08325 18.3335 1.99992 18.3335H11.9999C12.9166 18.3335 13.6666 17.5835 13.6666 16.6668V8.3335C13.6666 7.41683 12.9166 6.66683 11.9999 6.66683ZM4.49992 5.00016C4.49992 3.61683 5.61658 2.50016 6.99992 2.50016C8.38325 2.50016 9.49992 3.61683 9.49992 5.00016V6.66683H4.49992V5.00016ZM11.9999 16.6668H1.99992V8.3335H11.9999V16.6668ZM6.99992 14.1668C7.91658 14.1668 8.66658 13.4168 8.66658 12.5002C8.66658 11.5835 7.91658 10.8335 6.99992 10.8335C6.08325 10.8335 5.33325 11.5835 5.33325 12.5002C5.33325 13.4168 6.08325 14.1668 6.99992 14.1668Z" fill="white"/>
</svg>
