<svg width="42" height="41" viewBox="0 0 42 41" fill="none" xmlns="http://www.w3.org/2000/svg">
<path d="M14.6153 28.7003L12.6411 26.068C12.4331 25.7943 12.0418 25.7416 11.768 25.9496C11.7233 25.9838 11.6838 26.0233 11.6496 26.068L9.67535 28.7003C9.506 28.9232 9.506 29.2321 9.67535 29.4549L11.6496 32.0872C11.8575 32.361 12.2488 32.4136 12.5226 32.2057C12.5674 32.1714 12.6068 32.132 12.6411 32.0872L14.6153 29.4549C14.7846 29.2321 14.7846 28.9232 14.6153 28.7003ZM12.1409 30.6745L10.9301 29.0689L12.1409 27.4632L13.3518 29.0689L12.1409 30.6745Z" fill="#DBE6EC"/>
<path d="M32.4532 28.7003L30.4789 26.068C30.271 25.7943 29.8797 25.7416 29.6059 25.9496C29.5612 25.9838 29.5217 26.0233 29.4875 26.068L27.5132 28.7003C27.3439 28.9232 27.3439 29.2321 27.5132 29.4549L29.4875 32.0872C29.6954 32.361 30.0867 32.4136 30.3605 32.2057C30.4052 32.1714 30.4447 32.132 30.4789 32.0872L32.4532 29.4549C32.6225 29.2321 32.6225 28.9232 32.4532 28.7003ZM29.9788 30.6745L28.768 29.0689L29.9788 27.4632L31.1897 29.0689L29.9788 30.6745Z" fill="#DBE6EC"/>
<path d="M24.2937 28.06L21.5298 24.4274C21.3219 24.1537 20.9306 24.101 20.6568 24.309C20.6121 24.3432 20.5726 24.3827 20.5384 24.4274L17.7657 28.1126C17.5963 28.3355 17.5963 28.6443 17.7657 28.8672L20.5384 32.5524C20.7463 32.8262 21.1376 32.8788 21.4114 32.6709C21.4561 32.6366 21.4956 32.5972 21.5298 32.5524L24.2937 28.8146C24.4631 28.5917 24.4631 28.2828 24.2937 28.06ZM21.0297 31.0783L19.0292 28.446L21.0297 25.8138L23.0303 28.446L21.0297 31.0783Z" fill="#DBE6EC"/>
<path d="M41.4109 8.5055C40.5028 7.40081 38.8725 7.242 37.7679 8.14926C36.6632 9.05652 36.5044 10.6877 37.4116 11.7923L30.1816 16.5305C29.8947 16.727 29.8166 17.1166 30.0061 17.4079C30.1184 17.5825 30.2158 17.7659 30.2966 17.9563C31.0757 19.7945 30.2167 21.9161 28.3794 22.6953C26.5412 23.4744 24.4195 22.6154 23.6404 20.7772C22.8612 18.939 23.7202 16.8174 25.5576 16.0382C25.8699 15.9048 26.0191 15.546 25.891 15.231L21.9075 5.81706C22.8472 5.52663 23.5825 4.79134 23.872 3.85249C24.3564 2.28277 23.4772 0.617416 21.9075 0.133075C20.3377 -0.351265 18.6724 0.527918 18.188 2.09764C17.7037 3.66736 18.5829 5.33272 20.1526 5.81706L16.1515 15.2494C16.0234 15.5644 16.1726 15.9233 16.485 16.0566C17.8178 16.6226 18.6847 17.9291 18.6873 19.3777C18.6908 21.3739 17.0755 22.9953 15.0793 22.9997C13.0832 23.0041 11.4617 21.3879 11.4573 19.3918C11.4564 18.6863 11.6644 17.9966 12.0539 17.4088C12.0575 17.4035 12.061 17.3982 12.0645 17.3921C12.2505 17.1025 12.1671 16.7173 11.8785 16.5313L4.65723 11.8108C5.18719 11.1729 5.38637 10.3226 5.19334 9.51629C4.85553 8.10188 3.43585 7.22972 2.02143 7.56753C0.607018 7.90534 -0.265145 9.32501 0.0726645 10.7394C0.410474 12.1538 1.83015 13.026 3.24457 12.6882L7.86861 34.0264H6.49983C4.83008 34.0264 3.47709 35.3794 3.47709 37.0491C3.47709 38.7189 4.83008 40.0719 6.49983 40.0719H35.5515C37.2212 40.0719 38.5742 38.7189 38.5742 37.0491C38.5742 35.3794 37.2212 34.0264 35.5515 34.0264H34.1915L38.8243 12.6698C39.6087 12.8523 40.4326 12.6601 41.0547 12.1486C42.1594 11.2404 42.3191 9.6093 41.4109 8.5055ZM2.60405 11.5203C1.85735 11.5203 1.25281 10.9158 1.25281 10.1691C1.25281 9.42241 1.85735 8.81786 2.60405 8.81786C3.35074 8.81786 3.95529 9.42241 3.95529 10.1691C3.95529 10.9158 3.35074 11.5203 2.60405 11.5203ZM19.2752 3.00051C19.2752 2.03095 20.0605 1.24565 21.03 1.24565C21.9996 1.24565 22.7849 2.03095 22.7849 3.00051C22.7849 3.97007 21.9996 4.75537 21.03 4.75537C20.0605 4.75537 19.2752 3.97007 19.2752 3.00051ZM35.5339 35.2723H35.5603C36.5438 35.2723 37.3414 36.0699 37.3414 37.0535C37.3414 38.0371 36.5438 38.8347 35.5603 38.8347H6.49983C5.51623 38.8347 4.71865 38.0371 4.71865 37.0535C4.71865 36.0699 5.51623 35.2723 6.49983 35.2723H35.5339ZM32.9367 34.0264H9.09701L9.11456 33.9825L4.62213 13.2226L10.7027 17.2148C9.58838 19.5023 10.4263 22.2627 12.6252 23.5437C14.9442 24.8959 17.9204 24.1114 19.2726 21.7915C20.6247 19.4725 19.8402 16.4962 17.5203 15.1441L21.03 6.87874L24.5398 15.1792C22.3357 16.4568 21.4916 19.2198 22.6059 21.5107C23.7799 23.9245 26.6895 24.9301 29.1033 23.7561C31.5171 22.5821 32.5226 19.6725 31.3486 17.2587L37.4292 13.2664L32.9367 34.0264ZM39.456 11.5028C38.7093 11.5028 38.1048 10.8974 38.1048 10.1516C38.1048 9.40574 38.7093 8.80031 39.456 8.80031V8.81786C40.1957 8.81786 40.7976 9.41188 40.8073 10.1516C40.8073 10.8982 40.2027 11.5028 39.456 11.5028Z" fill="#DBE6EC"/>
</svg>
