<svg width="48" height="32" viewBox="0 0 48 32" fill="none" xmlns="http://www.w3.org/2000/svg">
<path d="M47.959 23.1979C47.9692 23.1437 47.9201 23.0887 47.9201 23.0328V18.5958C47.9201 18.5399 47.9691 18.4849 47.959 18.4307C47.9553 18.4112 47.9769 18.393 47.972 18.3739C47.9633 18.3403 47.9678 18.3074 47.9552 18.2751C47.947 18.2538 47.9444 18.2339 47.9346 18.2136C47.9209 18.1852 47.9096 18.1575 47.8929 18.1304C47.8809 18.1111 47.8703 18.0923 47.8568 18.0741C47.849 18.0633 47.8439 18.0516 47.8356 18.0412L44.2864 13.6462C44.1183 13.4356 43.8635 13.3555 43.594 13.3555H33.1542C31.0408 10.4714 27.7562 8.91846 24.071 8.91846C20.3859 8.91846 17.1012 10.4714 14.9878 13.3555H4.548C4.27847 13.3555 4.02328 13.4356 3.85519 13.6462L0.305531 18.0622C0.297281 18.0726 0.291375 18.0739 0.2835 18.0845C0.270094 18.1029 0.257625 18.1164 0.245719 18.1359C0.229031 18.163 0.214219 18.1878 0.200531 18.2164C0.190781 18.2366 0.181219 18.2552 0.173063 18.2764C0.160594 18.3085 0.151125 18.341 0.142406 18.3746C0.137438 18.3936 0.0759376 18.4116 0.0721876 18.4311C0.061875 18.4853 0 18.5399 0 18.5958V23.0328C0 23.0887 0.061875 23.1435 0.0721876 23.1977C0.0758438 23.2172 0.109688 23.2356 0.114656 23.2547C0.123375 23.2883 0.146719 23.3215 0.159188 23.3535C0.167344 23.3748 0.183844 23.3947 0.193594 23.4148C0.207281 23.4434 0.225563 23.4712 0.24225 23.498C0.254156 23.5175 0.268406 23.5361 0.281813 23.5545C0.289594 23.5653 0.296438 23.577 0.304688 23.5874L3.85472 28.0665C4.02282 28.2771 4.27847 28.4413 4.548 28.4413H15.7583C17.8588 30.438 20.8076 31.991 24.071 31.991C27.3344 31.991 30.2833 30.438 32.3837 28.4413H43.594C43.8635 28.4413 44.1187 28.2771 44.2868 28.0665L47.8364 23.6085C47.8448 23.5981 47.8508 23.5758 47.8586 23.5652C47.872 23.5468 47.8843 23.5227 47.8963 23.5034C47.913 23.4763 47.9278 23.4434 47.9415 23.415C47.9513 23.3947 47.9608 23.3747 47.969 23.3535C47.9816 23.3213 47.991 23.2884 47.9997 23.2547C48.0045 23.2357 47.9553 23.2174 47.959 23.1979ZM43.1676 15.1302L45.2974 17.7925H35.2938C35.0716 16.6832 34.7356 15.7958 34.3001 15.1302H43.1676ZM4.97438 15.1302H13.842C13.4065 15.7958 13.0705 16.6832 12.8483 17.7925H2.84456L4.97438 15.1302ZM1.77478 19.5672H12.5722C12.5498 19.7891 12.5346 20.1556 12.5346 20.4547C12.5346 21.0581 12.5817 21.5639 12.6714 22.2295H1.77478V19.5672ZM4.97438 26.6666L2.84456 24.0043H13.0959C13.403 24.8918 13.8297 25.7791 14.3577 26.6666H4.97438ZM24.071 30.1321C18.6885 30.1321 14.3094 25.7532 14.3094 20.3706C14.3094 14.988 18.6884 10.6091 24.071 10.6091C29.4536 10.6091 33.8325 14.988 33.8325 20.3706C33.8325 25.7532 29.4535 30.1321 24.071 30.1321ZM43.1676 26.6666H33.7843C34.3123 25.7791 34.7391 24.8918 35.0461 24.0043H45.2973L43.1676 26.6666ZM46.1453 22.2296H35.4706C35.5603 21.564 35.6073 21.0582 35.6073 20.4548C35.6073 20.1558 35.5922 19.7892 35.5698 19.5673H46.1453V22.2296Z" fill="#764BA2"/>
<path d="M31.4069 18.1762C31.3025 17.8556 31.0247 17.6216 30.6902 17.573L27.0699 17.047L25.4507 13.766C25.1504 13.1585 24.1572 13.1603 23.8587 13.766L22.2398 17.047L18.6196 17.573C18.2851 17.6216 18.0073 17.8556 17.9029 18.1762C17.7984 18.4977 17.8855 18.8504 18.1273 19.0861L20.7475 21.6401L20.1288 25.2461C20.0721 25.5789 20.2089 25.9151 20.4819 26.1135C20.6366 26.2262 20.8199 26.2834 21.0036 26.2834C21.1449 26.2834 21.2866 26.2497 21.4166 26.1811L24.6547 24.4791L27.8932 26.1811C28.1927 26.3388 28.554 26.3128 28.8279 26.1135C29.1009 25.9151 29.2378 25.5789 29.1811 25.2461L28.5628 21.6401L31.1826 19.0861C31.4242 18.8504 31.5113 18.4977 31.4069 18.1762ZM26.9894 20.6954C26.7805 20.8991 26.6852 21.1929 26.7342 21.4806L27.1277 23.7736L25.0677 22.6912C24.9386 22.6227 24.7965 22.5889 24.6547 22.5889C24.513 22.5889 24.371 22.6227 24.2418 22.6912L22.1823 23.7736L22.5757 21.4806C22.6247 21.1929 22.5293 20.8991 22.3206 20.6954L20.6541 19.0706L22.9566 18.7361C23.2457 18.6944 23.4957 18.5125 23.6253 18.2507L24.6548 16.1639L25.6852 18.2507C25.8144 18.5125 26.0644 18.6944 26.3534 18.7361L28.656 19.0706L26.9894 20.6954Z" fill="#764BA2"/>
<path d="M15.9097 5.96224C15.8053 5.64162 15.5275 5.40762 15.193 5.35905L13.9056 5.17183L13.3297 4.00455C13.0307 3.3979 12.0367 3.3979 11.7377 4.00455L11.1618 5.17183L9.87446 5.35905C9.53996 5.40762 9.26218 5.64162 9.15775 5.96224C9.05331 6.28371 9.1404 6.63649 9.38218 6.87218L10.3142 7.78127L10.0941 9.06387C10.0373 9.39668 10.1743 9.73371 10.4477 9.93218C10.7207 10.1298 11.0838 10.1566 11.3823 9.99893L12.5337 9.39312L13.685 9.99893C13.815 10.0674 13.9571 10.1012 14.0984 10.1012C14.2821 10.1012 14.4654 10.044 14.6196 9.93227C14.8931 9.73381 15.03 9.39668 14.9733 9.06396L14.7531 7.78137L15.6852 6.87227C15.9271 6.6364 16.0142 6.28371 15.9097 5.96224ZM12.9208 7.59143C12.7986 7.53255 12.6664 7.50302 12.5339 7.50302C12.4013 7.50302 12.2691 7.53246 12.147 7.59143C12.1838 7.32284 12.0959 7.05237 11.9082 6.85652C12.1751 6.8089 12.406 6.64071 12.5339 6.40155C12.6617 6.64071 12.8927 6.8089 13.1596 6.85652C12.972 7.05237 12.8839 7.32274 12.9208 7.59143Z" fill="#764BA2"/>
<path d="M27.4468 2.41268C27.3424 2.09206 27.0646 1.85806 26.7301 1.80949L25.4427 1.62227L24.8668 0.454993C24.5679 -0.151664 23.5738 -0.151664 23.2749 0.454993L22.699 1.62227L21.4116 1.80949C21.0771 1.85806 20.7993 2.09206 20.6949 2.41268C20.5904 2.73415 20.6775 3.08693 20.9193 3.32262L21.8514 4.23171L21.6312 5.51431C21.5744 5.84712 21.7114 6.18415 21.9849 6.38262C22.2579 6.58109 22.6214 6.60706 22.9195 6.44937L24.0708 5.84365L25.2221 6.44937C25.3521 6.51781 25.4942 6.55165 25.6355 6.55165C25.8192 6.55165 26.0025 6.49447 26.1567 6.38272C26.4302 6.18425 26.5671 5.84712 26.5104 5.5144L26.2902 4.23181L27.2223 3.32271C27.4642 3.08684 27.5513 2.73415 27.4468 2.41268ZM24.4579 4.04187C24.3357 3.9829 24.2035 3.95346 24.071 3.95346C23.9384 3.95346 23.8062 3.9829 23.6841 4.04187C23.7209 3.77328 23.633 3.50281 23.4453 3.30696C23.7122 3.25934 23.9432 3.09115 24.071 2.85199C24.1989 3.09115 24.4298 3.25934 24.6967 3.30696C24.5091 3.50281 24.421 3.77328 24.4579 4.04187Z" fill="#764BA2"/>
<path d="M38.0962 5.96224C37.9918 5.64162 37.714 5.40762 37.3795 5.35905L36.0921 5.17183L35.5162 4.00455C35.2173 3.3979 34.2232 3.3979 33.9243 4.00455L33.3484 5.17183L32.061 5.35905C31.7265 5.40762 31.4487 5.64162 31.3443 5.96224C31.2398 6.28371 31.3269 6.63649 31.5687 6.87218L32.5008 7.78127L32.2806 9.06387C32.2238 9.39668 32.3608 9.73371 32.6343 9.93218C32.9073 10.1298 33.2704 10.1566 33.5689 9.99893L34.7202 9.39312L35.8716 9.99893C36.0015 10.0674 36.1436 10.1012 36.2849 10.1012C36.4686 10.1012 36.6519 10.044 36.8061 9.93227C37.0796 9.73381 37.2165 9.39668 37.1598 9.06396L36.9396 7.78137L37.8717 6.87227C38.1136 6.6364 38.2007 6.28371 38.0962 5.96224ZM35.1073 7.59143C34.9851 7.53255 34.853 7.50302 34.7204 7.50302C34.5878 7.50302 34.4556 7.53246 34.3335 7.59143C34.3703 7.32284 34.2824 7.05237 34.0947 6.85652C34.3616 6.8089 34.5925 6.64071 34.7204 6.40155C34.8483 6.64071 35.0792 6.8089 35.3461 6.85652C35.1585 7.05237 35.0705 7.32274 35.1073 7.59143Z" fill="#764BA2"/>
</svg>
