<svg width="24" height="23" viewBox="0 0 24 23" fill="none" xmlns="http://www.w3.org/2000/svg">
<path d="M22.9131 15.9108C24.1908 13.2278 24.3474 10.2079 23.3542 7.40666C21.3039 1.62521 14.9315 -1.40989 9.15001 0.640805C6.35131 1.63365 4.12923 3.64424 2.86369 6.26608L1.63994 2.81518C1.48418 2.37617 1.00211 2.14611 0.562249 2.30188C0.122814 2.45764 -0.107245 2.94013 0.0489422 3.37999L2.01226 8.91661C2.08697 9.12726 2.24274 9.29991 2.44452 9.39657C2.55891 9.45103 2.68302 9.47847 2.80755 9.47847C2.90295 9.47847 2.99835 9.46243 3.08953 9.42992L8.9343 7.35685C9.37374 7.20109 9.6038 6.71817 9.44761 6.27874C9.29185 5.83973 8.80809 5.60967 8.36992 5.76543L4.27866 7.21671C5.33271 4.88741 7.26437 3.10096 9.71355 2.2318C14.6182 0.492638 20.0223 3.06719 21.7619 7.97147C23.5015 12.8753 20.9265 18.2807 16.0227 20.0203C12.4726 21.2782 8.5202 20.3111 5.95408 17.5525C5.63664 17.2106 5.10223 17.192 4.76073 17.5094C4.41923 17.8269 4.40023 18.3613 4.71767 18.7024C6.8625 21.008 9.82837 22.2525 12.8656 22.2525C14.1113 22.2525 15.3692 22.0431 16.5862 21.6108C19.3887 20.618 21.6349 18.5939 22.9131 15.9108Z" fill="#67747C"/>
</svg>
